<svg width="1920" height="1196" viewBox="0 0 1920 1196" fill="none" xmlns="http://www.w3.org/2000/svg">
<path id="Blob" fill-rule="evenodd" clip-rule="evenodd" d="M-1108.68 -259.378C-1173.53 -636.281 -1030.5 -1078.14 -716.744 -1311.87C-408.699 -1541.34 31.8077 -1360.95 419.318 -1397.66C756.065 -1429.56 1073.38 -1588.74 1402.38 -1512.6C1780.76 -1425.03 2246.45 -1297.92 2376.75 -944.666C2509.16 -585.708 2081.57 -263.095 2000.83 109.857C1930.69 433.857 2183.56 844.01 1939.16 1076.63C1692.95 1310.97 1273.95 1127.35 927.889 1131.05C657.657 1133.95 382.798 1205.82 137.832 1095.91C-107.261 985.932 -219.537 730.716 -398.84 535.768C-645.528 267.552 -1047.85 94.171 -1108.68 -259.378Z" fill="#F6F6F7"/>
</svg>
