<svg id="Layer_1" data-name="Layer 1" xmlns="http://www.w3.org/2000/svg" viewBox="0 0 264.59 102.66"><defs><style>.cls-1{fill:#111;}</style></defs><title>404</title><path class="cls-1" d="M.29,66.53,47.72,0H60.06V66.14a47.56,47.56,0,0,0,7.67-.71,10.64,10.64,0,0,0,4.68-2,7.12,7.12,0,0,0,2.34-3.71,23.56,23.56,0,0,0,.65-6.1h4.8V85.24H75.4a20.86,20.86,0,0,0-.65-5.71,6.41,6.41,0,0,0-2.34-3.45,10.74,10.74,0,0,0-4.68-1.69,66.4,66.4,0,0,0-7.67-.58v4a58.91,58.91,0,0,0,.46,7.92,15.4,15.4,0,0,0,1.75,5.66A8.44,8.44,0,0,0,66,94.86a15.46,15.46,0,0,0,6.18,1.3v5.2H27.58v-5.2a19.74,19.74,0,0,0,7.34-1.37,9.83,9.83,0,0,0,4.29-3.44,13.41,13.41,0,0,0,2-5.33,44.32,44.32,0,0,0,.52-7.27V74.33H.29ZM41.74,24h-.52L11.33,66.14H41.74Z"/><path class="cls-1" d="M134.26,0a36.35,36.35,0,0,1,16.83,4,43.64,43.64,0,0,1,13.7,11,54.69,54.69,0,0,1,9.3,16.51,59.85,59.85,0,0,1,3.44,20.53,56.17,56.17,0,0,1-3.44,19.75,52.84,52.84,0,0,1-9.3,16,43.8,43.8,0,0,1-13.7,10.78,36.8,36.8,0,0,1-16.83,4,35.71,35.71,0,0,1-16.57-4,43.65,43.65,0,0,1-13.51-10.78,52.55,52.55,0,0,1-9.17-16,57.06,57.06,0,0,1-3.37-19.75A60.81,60.81,0,0,1,95,31.58a54.42,54.42,0,0,1,9.17-16.51A43.51,43.51,0,0,1,117.69,4,35.28,35.28,0,0,1,134.26,0Zm0,95.12a17.17,17.17,0,0,0,8.38-2,16,16,0,0,0,6.3-6.95,44.14,44.14,0,0,0,4-13.12,129.46,129.46,0,0,0,1.36-20.53A142.77,142.77,0,0,0,152.91,31a48.43,48.43,0,0,0-4-13.84,17.23,17.23,0,0,0-6.3-7.4,17,17,0,0,0-16.76,0,17.31,17.31,0,0,0-6.31,7.4,48.46,48.46,0,0,0-4,13.84,141.46,141.46,0,0,0-1.36,21.51A128.28,128.28,0,0,0,115.61,73a44.16,44.16,0,0,0,4,13.12,16.07,16.07,0,0,0,6.31,6.95A17.17,17.17,0,0,0,134.26,95.12Z"/><path class="cls-1" d="M184.68,66.53,232.1,0h12.35V66.14a47.56,47.56,0,0,0,7.67-.71,10.55,10.55,0,0,0,4.67-2,7,7,0,0,0,2.34-3.71,23.13,23.13,0,0,0,.65-6.1h4.81V85.24h-4.81a20.47,20.47,0,0,0-.65-5.71,6.31,6.31,0,0,0-2.34-3.45,10.65,10.65,0,0,0-4.67-1.69,66.4,66.4,0,0,0-7.67-.58v4a60.77,60.77,0,0,0,.45,7.92,15.59,15.59,0,0,0,1.76,5.66,8.39,8.39,0,0,0,3.7,3.44,15.4,15.4,0,0,0,6.17,1.3v5.2H212v-5.2a19.8,19.8,0,0,0,7.35-1.37,9.74,9.74,0,0,0,4.28-3.44,13.27,13.27,0,0,0,2-5.33,45.46,45.46,0,0,0,.52-7.27V74.33H184.68ZM226.13,24h-.52l-29.89,42.1h30.41Z"/></svg>