<svg id="Layer_1" data-name="Layer 1" xmlns="http://www.w3.org/2000/svg" viewBox="0 0 94.21 82.8"><defs><style>.cls-1{fill:#b55c3b;}</style></defs><title>korpa-prazna</title><path class="cls-1" d="M30.35,55.2H80.41a2.76,2.76,0,0,0,2.65-2l11-38.64A2.76,2.76,0,0,0,91.45,11H24L22,2.16A2.76,2.76,0,0,0,19.32,0H2.76a2.76,2.76,0,0,0,0,5.52H17.11l10,44.84a8.28,8.28,0,0,0,3.29,15.88H80.41a2.76,2.76,0,1,0,0-5.52h-50a2.76,2.76,0,0,1,0-5.52ZM87.79,16.56,78.33,49.68H32.57L25.21,16.56Z"/><path class="cls-1" d="M27.6,74.52a8.28,8.28,0,1,0,8.28-8.28A8.28,8.28,0,0,0,27.6,74.52Zm8.28-2.76a2.76,2.76,0,1,1-2.76,2.76A2.77,2.77,0,0,1,35.88,71.76Z"/><path class="cls-1" d="M66.61,74.52a8.28,8.28,0,1,0,8.28-8.28A8.28,8.28,0,0,0,66.61,74.52Zm8.28-2.76a2.76,2.76,0,1,1-2.76,2.76A2.77,2.77,0,0,1,74.89,71.76Z"/></svg>