<svg id="Layer_1" data-name="Layer 1" xmlns="http://www.w3.org/2000/svg" viewBox="0 0 82.8 82.8"><defs><style>.cls-1{fill:#187c68;}.cls-2{fill:#fff;}</style></defs><title>nazad-iz-korpe</title><rect class="cls-1" width="82.8" height="82.8"/><g id="Group_38" data-name="Group 38"><g id="Line_23" data-name="Line 23"><path class="cls-2" d="M71.87,70.68a2,2,0,0,1-1.4.59,2,2,0,0,1-1.42-.59L41.41,43,13.75,70.68a2,2,0,0,1-2.82-2.83L38.57,40.2,10.93,12.55a2,2,0,0,1,0-2.83,2,2,0,0,1,2.82,0L41.41,37.37,69.05,9.72a2,2,0,0,1,2.82,2.83L44.23,40.2,71.87,67.85A2,2,0,0,1,71.87,70.68Z"/></g></g></svg>