<svg id="Layer_1" data-name="Layer 1" xmlns="http://www.w3.org/2000/svg" viewBox="0 0 82.8 82.8"><defs><style>.cls-1{fill:#b55c3b;}</style></defs><title>izbaci-iz-korpe</title><path class="cls-1" d="M82.88,82.88h-83v-83h83Zm-81-2h79v-79h-79Z"/><g id="Group_38" data-name="Group 38"><g id="Line_23" data-name="Line 23"><path class="cls-1" d="M71.87,71.88a2,2,0,0,1-1.4.59,2,2,0,0,1-1.42-.59L41.41,44.23,13.75,71.88a2,2,0,1,1-2.82-2.83L38.57,41.4,10.93,13.75a2,2,0,0,1,0-2.83,2,2,0,0,1,2.82,0L41.41,38.57,69.05,10.92a2,2,0,0,1,2.82,2.83L44.23,41.4,71.87,69.05A2,2,0,0,1,71.87,71.88Z"/></g></g></svg>