<svg xmlns="http://www.w3.org/2000/svg" viewBox="0 0 500 500"><defs><style>.cls-1,.cls-2{fill:none;stroke:#b55c3b;stroke-miterlimit:10;}.cls-1{stroke-width:3px;}.cls-2{stroke-width:2px;}</style></defs><title>Artboard 8 copy 6</title><g id="skrol"><line class="cls-1" x1="264.88" y1="174.5" x2="264.88" y2="258.66"/><circle class="cls-1" cx="264.7" cy="273.07" r="13.35"/><polyline class="cls-2" points="249.05 290.45 265.09 298 281.12 290.45"/><path class="cls-2" d="M243.87,276.79a2,2,0,0,0-1.46,1.47,2.17,2.17,0,0,0,1.46,2.19,2.79,2.79,0,0,0,2.94-.72,3.28,3.28,0,0,0,.73-2.94,4.06,4.06,0,0,0-2.94-2.94,4.45,4.45,0,0,0-3.66.74,4.66,4.66,0,0,0-1.47,5.14,5.06,5.06,0,0,0,2.94,2.93q11,5.32,22,10.63"/><path class="cls-2" d="M284.94,276.79a2,2,0,0,1,1.46,1.47,2.2,2.2,0,0,1-1.46,2.2,2.79,2.79,0,0,1-2.94-.74,3.26,3.26,0,0,1-.73-2.93,4,4,0,0,1,2.93-2.93,4.45,4.45,0,0,1,3.67.73,4.66,4.66,0,0,1,1.47,5.13,5.06,5.06,0,0,1-2.94,2.94l-22.73,11"/></g></svg>